<mxfile host="app.diagrams.net" modified="2023-08-08T06:17:35.426Z" agent="Mozilla/5.0 (Macintosh; Intel Mac OS X 10_15_7) AppleWebKit/537.36 (KHTML, like Gecko) Chrome/115.0.0.0 Safari/537.36" version="21.6.6" etag="oQId0ICkb9Ox_3a7B5l9" type="github">
  <diagram name="第 1 页" id="kISr_TE2GQifkpPX-Tt2">
    <mxGraphModel>
      <root>
        <mxCell id="0" />
        <mxCell id="1" parent="0" />
      </root>
    </mxGraphModel>
  </diagram>
</mxfile>
